<svg width="546" height="484" viewBox="0 0 546 484" fill="none" xmlns="http://www.w3.org/2000/svg">
<path d="M261.699 82.1076L47.4025 231.907C38.23 238.319 38.3053 251.925 47.5481 258.235L263.982 405.993C269.484 409.749 276.737 409.703 282.191 405.879L495.794 256.079C504.94 249.665 504.864 236.091 495.648 229.779L279.907 82.0206C274.412 78.2566 267.159 78.2913 261.699 82.1076Z" stroke="#A8A8A8"/>
<path d="M261.699 58.5782L47.4025 208.378C38.23 214.79 38.3053 228.396 47.5481 234.706L263.982 382.464C269.484 386.219 276.737 386.174 282.191 382.349L495.794 232.55C504.94 226.136 504.864 212.561 495.648 206.249L279.907 58.4911C274.412 54.7272 267.159 54.7619 261.699 58.5782Z" fill="black"/>
<path d="M261.699 58.5782L47.4025 208.378C38.23 214.79 38.3053 228.396 47.5481 234.706L263.982 382.464C269.484 386.219 276.737 386.174 282.191 382.349L495.794 232.55C504.94 226.136 504.864 212.561 495.648 206.249L279.907 58.4911C274.412 54.7272 267.159 54.7619 261.699 58.5782Z" fill="url(#paint0_linear_56_30)" fill-opacity="0.2"/>
<path d="M261.699 58.5782L47.4025 208.378C38.23 214.79 38.3053 228.396 47.5481 234.706L263.982 382.464C269.484 386.219 276.737 386.174 282.191 382.349L495.794 232.55C504.94 226.136 504.864 212.561 495.648 206.249L279.907 58.4911C274.412 54.7272 267.159 54.7619 261.699 58.5782Z" stroke="#A8A8A8"/>
<path d="M394.3 175.386L341.528 212.113C335.772 216.119 335.819 224.65 341.619 228.591L394.94 264.833C398.371 267.165 402.885 267.137 406.286 264.762L458.888 228.035C464.626 224.028 464.579 215.517 458.797 211.574L405.646 175.332C402.219 172.995 397.705 173.017 394.3 175.386Z" fill="url(#paint1_radial_56_30)" fill-opacity="0.5" stroke="#333333" stroke-width="0.3"/>
<path d="M130.77 175.386L77.9978 212.113C72.2423 216.119 72.2894 224.65 78.0887 228.591L131.41 264.833C134.841 267.165 139.355 267.137 142.756 264.762L195.358 228.035C201.097 224.028 201.05 215.517 195.267 211.574L142.116 175.332C138.689 172.995 134.175 173.017 130.77 175.386Z" fill="url(#paint2_radial_56_30)" fill-opacity="0.5" stroke="#333333" stroke-width="0.3"/>
<path d="M260.971 84.4028L208.097 121.201C202.368 125.187 202.382 133.668 208.125 137.636L306.045 205.291C309.379 207.595 313.773 207.658 317.173 205.452L375.185 167.806C379.981 164.694 380.059 157.7 375.332 154.482L272.311 84.3445C268.884 82.0116 264.373 82.0348 260.971 84.4028Z" stroke="#333333" stroke-width="0.3"/>
<path d="M217.049 234.991L164.175 271.789C158.446 275.776 158.461 284.256 164.203 288.224L262.123 355.879C265.457 358.183 269.852 358.247 273.251 356.041L331.263 318.394C336.06 315.282 336.137 308.288 331.411 305.071L228.389 234.933C224.963 232.6 220.452 232.623 217.049 234.991Z" stroke="#333333" stroke-width="0.3"/>
<path d="M187.506 138.477L150.839 163.488C148.53 165.063 148.508 168.46 150.795 170.066L262.149 248.235C263.552 249.22 265.426 249.201 266.81 248.188L303.847 221.072C306.076 219.44 306.019 216.093 303.735 214.538L192.011 138.475C190.652 137.55 188.865 137.551 187.506 138.477Z" stroke="#333333" stroke-width="0.3"/>
<defs>
<linearGradient id="paint0_linear_56_30" x1="271.557" y1="52.2354" x2="271.557" y2="388.706" gradientUnits="userSpaceOnUse">
<stop stop-color="#5D5D5D" stop-opacity="0"/>
<stop offset="1" stop-color="#5D5D5D"/>
</linearGradient>
<radialGradient id="paint1_radial_56_30" cx="0" cy="0" r="1" gradientUnits="userSpaceOnUse" gradientTransform="translate(400.182 220.078) rotate(90) scale(48.6274 70.5883)">
<stop offset="0.41" stop-color="#5D5D5D" stop-opacity="0.17"/>
<stop offset="1" stop-color="#5D5D5D" stop-opacity="0.84"/>
</radialGradient>
<radialGradient id="paint2_radial_56_30" cx="0" cy="0" r="1" gradientUnits="userSpaceOnUse" gradientTransform="translate(136.652 220.078) rotate(90) scale(48.6274 70.5883)">
<stop offset="0.41" stop-color="#5D5D5D" stop-opacity="0.17"/>
<stop offset="1" stop-color="#5D5D5D" stop-opacity="0.84"/>
</radialGradient>
</defs>
</svg>
