<svg width="38" height="38" viewBox="0 0 38 38" fill="none" xmlns="http://www.w3.org/2000/svg">
<path d="M18.9463 16.173C18.2882 16.173 17.657 16.4344 17.1916 16.8998C16.7263 17.3652 16.4648 17.9964 16.4648 18.6545C16.4648 19.3126 16.7263 19.9438 17.1916 20.4092C17.657 20.8746 18.2882 21.136 18.9463 21.136C19.6045 21.136 20.2356 20.8746 20.701 20.4092C21.1664 19.9438 21.4278 19.3126 21.4278 18.6545C21.4278 17.9964 21.1664 17.3652 20.701 16.8998C20.2356 16.4344 19.6045 16.173 18.9463 16.173ZM18.9463 14.5187C20.0432 14.5187 21.0952 14.9544 21.8708 15.73C22.6464 16.5056 23.0822 17.5576 23.0822 18.6545C23.0822 19.7514 22.6464 20.8034 21.8708 21.579C21.0952 22.3546 20.0432 22.7903 18.9463 22.7903C17.8494 22.7903 16.7975 22.3546 16.0219 21.579C15.2462 20.8034 14.8105 19.7514 14.8105 18.6545C14.8105 17.5576 15.2462 16.5056 16.0219 15.73C16.7975 14.9544 17.8494 14.5187 18.9463 14.5187ZM24.3229 14.3119C24.3229 14.5861 24.214 14.8491 24.0201 15.043C23.8262 15.2369 23.5632 15.3458 23.289 15.3458C23.0147 15.3458 22.7517 15.2369 22.5578 15.043C22.3639 14.8491 22.255 14.5861 22.255 14.3119C22.255 14.0376 22.3639 13.7746 22.5578 13.5807C22.7517 13.3868 23.0147 13.2779 23.289 13.2779C23.5632 13.2779 23.8262 13.3868 24.0201 13.5807C24.214 13.7746 24.3229 14.0376 24.3229 14.3119ZM18.9463 12.0371C16.8999 12.0371 16.5657 12.0429 15.6137 12.0851C14.9652 12.1157 14.5301 12.2026 14.1264 12.3597C13.7888 12.4841 13.4835 12.6829 13.2331 12.9412C12.9744 13.1916 12.7754 13.4969 12.6508 13.8346C12.4936 14.2399 12.4067 14.6742 12.377 15.3218C12.334 16.235 12.3282 16.5543 12.3282 18.6545C12.3282 20.7017 12.334 21.0351 12.3761 21.9871C12.4067 22.6348 12.4936 23.0707 12.6499 23.4736C12.7906 23.8334 12.956 24.0923 13.2306 24.3669C13.5094 24.6448 13.7683 24.8111 14.1239 24.9484C14.5326 25.1064 14.9677 25.1941 15.6128 25.2239C16.526 25.2669 16.8453 25.2718 18.9455 25.2718C20.9927 25.2718 21.3261 25.266 22.2782 25.2239C22.925 25.1933 23.3601 25.1064 23.7646 24.9501C24.1022 24.8257 24.4075 24.6269 24.6579 24.3686C24.9367 24.0906 25.1029 23.8317 25.2403 23.4752C25.3974 23.0683 25.4851 22.6332 25.5149 21.9863C25.5579 21.074 25.5628 20.7538 25.5628 18.6545C25.5628 16.6081 25.5571 16.2739 25.5149 15.3218C25.4843 14.675 25.3966 14.2382 25.2403 13.8346C25.1159 13.497 24.9171 13.1916 24.6588 12.9412C24.4084 12.6826 24.1031 12.4835 23.7654 12.3589C23.3601 12.2018 22.925 12.1149 22.2782 12.0851C21.3658 12.0421 21.0465 12.0371 18.9455 12.0371M18.9455 10.3828C21.1929 10.3828 21.4733 10.3911 22.3559 10.4324C23.236 10.4738 23.8365 10.6119 24.3635 10.8171C24.9094 11.0272 25.3693 11.3117 25.8292 11.7708C26.25 12.1842 26.5755 12.6844 26.7829 13.2365C26.9872 13.7634 27.1262 14.364 27.1676 15.2449C27.2064 16.1267 27.2172 16.4071 27.2172 18.6545C27.2172 20.9019 27.2089 21.1823 27.1676 22.0641C27.1262 22.9458 26.9872 23.5447 26.7829 24.0724C26.5755 24.6246 26.25 25.1248 25.8292 25.5382C25.4158 25.959 24.9156 26.2844 24.3635 26.4919C23.8365 26.6962 23.236 26.8352 22.3559 26.8765C21.4733 26.9154 21.1929 26.9262 18.9455 26.9262C16.6981 26.9262 16.4177 26.9179 15.5351 26.8765C14.655 26.8352 14.0553 26.6962 13.5276 26.4919C12.9754 26.2844 12.4752 25.959 12.0618 25.5382C11.641 25.1248 11.3156 24.6246 11.1081 24.0724C10.903 23.5455 10.7648 22.945 10.7235 22.0641C10.6838 21.1823 10.6738 20.9019 10.6738 18.6545C10.6738 16.4071 10.6821 16.1267 10.7235 15.2449C10.7648 14.3631 10.903 13.7643 11.1081 13.2365C11.3156 12.6844 11.641 12.1842 12.0618 11.7708C12.4752 11.35 12.9754 11.0245 13.5276 10.8171C14.0545 10.6119 14.6542 10.4738 15.5351 10.4324C16.4185 10.3936 16.6989 10.3828 18.9463 10.3828" fill="#D9D9D9"/>
<circle cx="18.9458" cy="19.3042" r="18.0181" stroke="white"/>
</svg>
