<svg width="38" height="38" viewBox="0 0 38 38" fill="none" xmlns="http://www.w3.org/2000/svg">
<path fill-rule="evenodd" clip-rule="evenodd" d="M20.9147 9.37891C21.1662 9.37891 21.4074 9.47881 21.5852 9.65663C21.763 9.83445 21.8629 10.0756 21.8629 10.3271C21.8635 11.2013 22.1657 12.0485 22.7185 12.7257C23.2713 13.4029 24.0408 13.8686 24.8972 14.0441C25.1437 14.0944 25.36 14.2405 25.4987 14.4504C25.6374 14.6602 25.6871 14.9165 25.6368 15.163C25.5865 15.4094 25.4404 15.6258 25.2305 15.7645C25.0207 15.9032 24.7644 15.9529 24.5179 15.9026C23.5301 15.7001 22.6138 15.2387 21.8629 14.5656V22.6538C21.8629 23.5915 21.5849 24.5081 21.0639 25.2878C20.543 26.0675 19.8025 26.6751 18.9362 27.034C18.0699 27.3928 17.1166 27.4867 16.197 27.3038C15.2773 27.1208 14.4325 26.6693 13.7695 26.0062C13.1064 25.3432 12.6549 24.4984 12.472 23.5788C12.289 22.6591 12.3829 21.7058 12.7418 20.8395C13.1006 19.9732 13.7083 19.2327 14.4879 18.7118C15.2676 18.1908 16.1842 17.9128 17.1219 17.9128C17.3734 17.9128 17.6146 18.0127 17.7924 18.1905C17.9702 18.3683 18.0701 18.6095 18.0701 18.861C18.0701 19.1125 17.9702 19.3536 17.7924 19.5315C17.6146 19.7093 17.3734 19.8092 17.1219 19.8092C16.5593 19.8092 16.0093 19.976 15.5415 20.2886C15.0737 20.6012 14.7091 21.0454 14.4938 21.5652C14.2785 22.085 14.2222 22.657 14.3319 23.2088C14.4417 23.7606 14.7126 24.2674 15.1104 24.6653C15.5083 25.0631 16.0151 25.334 16.5669 25.4438C17.1187 25.5535 17.6907 25.4972 18.2105 25.2819C18.7303 25.0666 19.1746 24.702 19.4871 24.2342C19.7997 23.7664 19.9665 23.2164 19.9665 22.6538V10.3271C19.9665 10.0756 20.0664 9.83445 20.2443 9.65663C20.4221 9.47881 20.6633 9.37891 20.9147 9.37891Z" fill="#D9D9D9"/>
<circle cx="19.0181" cy="19.3042" r="18.0181" stroke="white"/>
</svg>
