<svg width="550" height="389" viewBox="0 0 550 389" fill="none" xmlns="http://www.w3.org/2000/svg">
<path d="M153.247 237.279L368.25 86.5891C370.729 84.8519 373.999 84.7799 376.546 86.3812L376.79 86.5408L457.684 141.889C461.939 144.801 462.041 151.016 457.951 154.077L457.753 154.221L242.75 304.911C240.271 306.648 237.001 306.72 234.455 305.118L234.211 304.958L225.29 298.855L225.355 298.793C226.302 297.884 226.311 296.391 225.422 295.469L225.232 295.292L225.067 295.155C224.222 294.451 222.993 294.51 222.219 295.258L222.071 295.417C221.719 295.834 221.124 295.938 220.656 295.678L220.564 295.621L216.45 292.807C216.121 292.581 216.022 292.145 216.211 291.804L216.252 291.737C216.74 291.032 216.648 290.087 216.055 289.489L215.93 289.374L215.035 288.629C214.2 287.933 213.028 287.832 212.092 288.356L211.908 288.469C211.396 288.815 210.734 288.834 210.205 288.528L210.101 288.463L153.317 249.611C149.061 246.699 148.959 240.484 153.049 237.422L153.247 237.279Z" stroke="#5D5D5D"/>
<path d="M370.488 85.9421C371.348 85.3392 372.301 85.2029 373.164 85.2882C374.031 85.3738 374.778 85.6818 375.188 85.9275L453.121 139.503L243.214 285.758C241.547 286.919 239.472 287.18 237.508 287.003C235.566 286.828 233.791 286.229 232.751 285.733L158.873 234.258L370.488 85.9421Z" stroke="#5D5D5D"/>
<path d="M368.536 86.4086L368.547 86.4017L368.556 86.3939C369.781 85.4376 372.874 84.0936 375.797 85.9016L376.079 86.0867L449.625 137.003L243.373 281.663L243.374 281.662C241.772 282.778 239.777 283.029 237.886 282.859C236.018 282.69 234.311 282.115 233.31 281.638L162.14 232.05L368.536 86.4086Z" fill="black" fill-opacity="0.29" stroke="#5D5D5D"/>
<path d="M243 293L249.5 300.5" stroke="#5D5D5D"/>
<path d="M247 290L253.5 297.5" stroke="#5D5D5D"/>
<path d="M251 287L257.5 294.5" stroke="#5D5D5D"/>
<path d="M255 284L261.5 291.5" stroke="#5D5D5D"/>
<path d="M259 281L265.5 288.5" stroke="#5D5D5D"/>
<path d="M263 279L269.5 286.5" stroke="#5D5D5D"/>
<path d="M267 276L273.5 283.5" stroke="#5D5D5D"/>
<path d="M271 273L277.5 280.5" stroke="#5D5D5D"/>
<path d="M275 270L281.5 277.5" stroke="#5D5D5D"/>
<path d="M279 268L285.5 275.5" stroke="#5D5D5D"/>
<path d="M282 266L288.5 273.5" stroke="#5D5D5D"/>
<path d="M285 264L291.5 271.5" stroke="#5D5D5D"/>
<path d="M288 261L294.5 268.5" stroke="#5D5D5D"/>
<path d="M291 259L297.5 266.5" stroke="#5D5D5D"/>
<path d="M294 257L300.5 264.5" stroke="#5D5D5D"/>
<path d="M297 255L303.5 262.5" stroke="#5D5D5D"/>
<path d="M301 252L307.5 259.5" stroke="#5D5D5D"/>
<path d="M305 249L311.5 256.5" stroke="#5D5D5D"/>
<path d="M309 246L315.5 253.5" stroke="#5D5D5D"/>
<path d="M313 244L319.5 251.5" stroke="#5D5D5D"/>
<path d="M317 241L323.5 248.5" stroke="#5D5D5D"/>
<path d="M321 238L327.5 245.5" stroke="#5D5D5D"/>
<path d="M325 235L331.5 242.5" stroke="#5D5D5D"/>
<path d="M329 232L335.5 239.5" stroke="#5D5D5D"/>
<path d="M333 230L339.5 237.5" stroke="#5D5D5D"/>
<path d="M337 227L343.5 234.5" stroke="#5D5D5D"/>
<path d="M341 224L347.5 231.5" stroke="#5D5D5D"/>
<path d="M345 221L351.5 228.5" stroke="#5D5D5D"/>
<path d="M349 218L355.5 225.5" stroke="#5D5D5D"/>
<path d="M353 216L359.5 223.5" stroke="#5D5D5D"/>
<path d="M357 213L363.5 220.5" stroke="#5D5D5D"/>
<path d="M361 210L367.5 217.5" stroke="#5D5D5D"/>
<path d="M365 207L371.5 214.5" stroke="#5D5D5D"/>
<path d="M369 204L375.5 211.5" stroke="#5D5D5D"/>
<path d="M373 201L379.5 208.5" stroke="#5D5D5D"/>
<path d="M377 199L383.5 206.5" stroke="#5D5D5D"/>
<path d="M381 196L387.5 203.5" stroke="#5D5D5D"/>
<path d="M385 193L391.5 200.5" stroke="#5D5D5D"/>
<path d="M389 190L395.5 197.5" stroke="#5D5D5D"/>
<path d="M393 187L399.5 194.5" stroke="#5D5D5D"/>
<path d="M393 187L399.5 194.5" stroke="#5D5D5D"/>
<path d="M397 185L403.5 192.5" stroke="#5D5D5D"/>
<path d="M401 182L407.5 189.5" stroke="#5D5D5D"/>
<path d="M405 179L411.5 186.5" stroke="#5D5D5D"/>
<path d="M409 176L415.5 183.5" stroke="#5D5D5D"/>
<path d="M413 173L419.5 180.5" stroke="#5D5D5D"/>
<path d="M417 171L423.5 178.5" stroke="#5D5D5D"/>
<path d="M421 168L427.5 175.5" stroke="#5D5D5D"/>
<path d="M425 165L431.5 172.5" stroke="#5D5D5D"/>
<path d="M429 162L435.5 169.5" stroke="#5D5D5D"/>
<path d="M433 159L439.5 166.5" stroke="#5D5D5D"/>
<path d="M437 157L443.5 164.5" stroke="#5D5D5D"/>
<path d="M440 154L446.5 161.5" stroke="#5D5D5D"/>
<path d="M443 152L449.5 159.5" stroke="#5D5D5D"/>
<path d="M446 150L452.5 157.5" stroke="#5D5D5D"/>
<path d="M449 148L455.5 155.5" stroke="#5D5D5D"/>
<path d="M452 146L458.5 153.5" stroke="#5D5D5D"/>
<path d="M455 144L460.5 150.5" stroke="#5D5D5D"/>
<path d="M243 293L247.972 289.5L457.5 142" stroke="#5D5D5D"/>
<path d="M155.747 197.802L370.75 47.1118C373.229 45.3746 376.499 45.3026 379.046 46.9039L379.29 47.0635L460.184 102.412C464.439 105.324 464.541 111.538 460.451 114.6L460.253 114.744L245.25 265.433C242.771 267.17 239.501 267.242 236.955 265.641L236.711 265.481L227.79 259.378L227.855 259.316C228.802 258.406 228.811 256.913 227.922 255.991L227.732 255.815L227.567 255.677C226.722 254.973 225.493 255.032 224.719 255.781L224.571 255.94C224.219 256.356 223.624 256.46 223.156 256.201L223.064 256.144L218.95 253.329C218.621 253.104 218.522 252.668 218.711 252.327L218.752 252.26C219.24 251.555 219.148 250.61 218.555 250.012L218.43 249.897L217.535 249.152C216.7 248.456 215.528 248.355 214.592 248.878L214.408 248.992C213.896 249.337 213.234 249.356 212.705 249.05L212.601 248.985L155.817 210.133C151.561 207.221 151.459 201.007 155.549 197.945L155.747 197.802Z" stroke="#5D5D5D"/>
<path d="M372.988 46.4648C373.848 45.862 374.801 45.7256 375.664 45.8109C376.531 45.8965 377.278 46.2045 377.688 46.4502L455.621 100.025L245.714 246.28C244.047 247.442 241.972 247.702 240.008 247.525C238.066 247.35 236.291 246.752 235.251 246.255L161.373 194.781L372.988 46.4648Z" stroke="#5D5D5D"/>
<path d="M371.036 46.9313L371.047 46.9245L371.056 46.9166C372.281 45.9603 375.374 44.6163 378.297 46.4243L378.579 46.6094L452.125 97.5254L245.873 242.186L245.874 242.185C244.272 243.301 242.277 243.552 240.386 243.381C238.518 243.213 236.811 242.638 235.81 242.16L164.64 192.572L371.036 46.9313Z" fill="black" fill-opacity="0.6" stroke="#5D5D5D"/>
<path d="M245.5 253.523L252 261.023" stroke="#5D5D5D"/>
<path d="M249.5 250.523L256 258.023" stroke="#5D5D5D"/>
<path d="M253.5 247.523L260 255.023" stroke="#5D5D5D"/>
<path d="M257.5 244.523L264 252.023" stroke="#5D5D5D"/>
<path d="M261.5 241.523L268 249.023" stroke="#5D5D5D"/>
<path d="M265.5 239.523L272 247.023" stroke="#5D5D5D"/>
<path d="M269.5 236.523L276 244.023" stroke="#5D5D5D"/>
<path d="M273.5 233.523L280 241.023" stroke="#5D5D5D"/>
<path d="M277.5 230.523L284 238.023" stroke="#5D5D5D"/>
<path d="M281.5 228.523L288 236.023" stroke="#5D5D5D"/>
<path d="M284.5 226.523L291 234.023" stroke="#5D5D5D"/>
<path d="M287.5 224.523L294 232.023" stroke="#5D5D5D"/>
<path d="M290.5 221.523L297 229.023" stroke="#5D5D5D"/>
<path d="M293.5 219.523L300 227.023" stroke="#5D5D5D"/>
<path d="M296.5 217.523L303 225.023" stroke="#5D5D5D"/>
<path d="M299.5 215.523L306 223.023" stroke="#5D5D5D"/>
<path d="M303.5 212.523L310 220.023" stroke="#5D5D5D"/>
<path d="M307.5 209.523L314 217.023" stroke="#5D5D5D"/>
<path d="M311.5 206.523L318 214.023" stroke="#5D5D5D"/>
<path d="M315.5 204.523L322 212.023" stroke="#5D5D5D"/>
<path d="M319.5 201.523L326 209.023" stroke="#5D5D5D"/>
<path d="M323.5 198.523L330 206.023" stroke="#5D5D5D"/>
<path d="M327.5 195.523L334 203.023" stroke="#5D5D5D"/>
<path d="M331.5 192.523L338 200.023" stroke="#5D5D5D"/>
<path d="M335.5 190.523L342 198.023" stroke="#5D5D5D"/>
<path d="M339.5 187.523L346 195.023" stroke="#5D5D5D"/>
<path d="M343.5 184.523L350 192.023" stroke="#5D5D5D"/>
<path d="M347.5 181.523L354 189.023" stroke="#5D5D5D"/>
<path d="M351.5 178.523L358 186.023" stroke="#5D5D5D"/>
<path d="M355.5 176.523L362 184.023" stroke="#5D5D5D"/>
<path d="M359.5 173.523L366 181.023" stroke="#5D5D5D"/>
<path d="M363.5 170.523L370 178.023" stroke="#5D5D5D"/>
<path d="M367.5 167.523L374 175.023" stroke="#5D5D5D"/>
<path d="M371.5 164.523L378 172.023" stroke="#5D5D5D"/>
<path d="M375.5 161.523L382 169.023" stroke="#5D5D5D"/>
<path d="M379.5 159.523L386 167.023" stroke="#5D5D5D"/>
<path d="M383.5 156.523L390 164.023" stroke="#5D5D5D"/>
<path d="M387.5 153.523L394 161.023" stroke="#5D5D5D"/>
<path d="M391.5 150.523L398 158.023" stroke="#5D5D5D"/>
<path d="M395.5 147.523L402 155.023" stroke="#5D5D5D"/>
<path d="M395.5 147.523L402 155.023" stroke="#5D5D5D"/>
<path d="M399.5 145.523L406 153.023" stroke="#5D5D5D"/>
<path d="M403.5 142.523L410 150.023" stroke="#5D5D5D"/>
<path d="M407.5 139.523L414 147.023" stroke="#5D5D5D"/>
<path d="M411.5 136.523L418 144.023" stroke="#5D5D5D"/>
<path d="M415.5 133.523L422 141.023" stroke="#5D5D5D"/>
<path d="M419.5 131.523L426 139.023" stroke="#5D5D5D"/>
<path d="M423.5 128.523L430 136.023" stroke="#5D5D5D"/>
<path d="M427.5 125.523L434 133.023" stroke="#5D5D5D"/>
<path d="M431.5 122.523L438 130.023" stroke="#5D5D5D"/>
<path d="M435.5 119.523L442 127.023" stroke="#5D5D5D"/>
<path d="M439.5 117.523L446 125.023" stroke="#5D5D5D"/>
<path d="M442.5 114.523L449 122.023" stroke="#5D5D5D"/>
<path d="M445.5 112.523L452 120.023" stroke="#5D5D5D"/>
<path d="M448.5 110.523L455 118.023" stroke="#5D5D5D"/>
<path d="M451.5 108.523L458 116.023" stroke="#5D5D5D"/>
<path d="M454.5 106.523L461 114.023" stroke="#5D5D5D"/>
<path d="M457.5 104.523L463 111.023" stroke="#5D5D5D"/>
<path d="M245.5 253.523L250.472 250.023L460 102.523" stroke="#5D5D5D"/>
</svg>
