<svg width="627" height="447" viewBox="0 0 627 447" fill="none" xmlns="http://www.w3.org/2000/svg">
<mask id="mask0_56_28" style="mask-type:alpha" maskUnits="userSpaceOnUse" x="0" y="0" width="627" height="447">
<rect x="0.831299" y="0.252441" width="626" height="446" fill="#D9D9D9"/>
</mask>
<g mask="url(#mask0_56_28)">
<path d="M514.874 186.031L548.354 209.434C552.936 212.638 552.903 219.434 548.29 222.592L460.034 283.02C457.29 284.898 453.67 284.884 450.941 282.982L417.341 259.571C412.748 256.37 412.778 249.563 417.4 246.403L505.776 185.984C508.523 184.106 512.147 184.125 514.874 186.031Z" stroke="#A8A8A8"/>
<path d="M514.883 181.427L548.361 204.829C552.942 208.031 552.911 214.823 548.303 217.984L460.64 278.103C457.9 279.982 454.285 279.972 451.556 278.079L417.975 254.789C413.373 251.598 413.39 244.788 418.007 241.619L505.773 181.388C508.521 179.502 512.151 179.517 514.883 181.427Z" fill="black"/>
<path d="M514.883 181.427L548.361 204.829C552.942 208.031 552.911 214.823 548.303 217.984L460.64 278.103C457.9 279.982 454.285 279.972 451.556 278.079L417.975 254.789C413.373 251.598 413.39 244.788 418.007 241.619L505.773 181.388C508.521 179.502 512.151 179.517 514.883 181.427Z" fill="url(#paint0_linear_56_28)" fill-opacity="0.2"/>
<path d="M514.883 181.427L548.361 204.829C552.942 208.031 552.911 214.823 548.303 217.984L460.64 278.103C457.9 279.982 454.285 279.972 451.556 278.079L417.975 254.789C413.373 251.598 413.39 244.788 418.007 241.619L505.773 181.388C508.521 179.502 512.151 179.517 514.883 181.427Z" stroke="#A8A8A8"/>
<path d="M527.343 195.619L532.391 199.063C533.545 199.85 533.557 201.549 532.413 202.352L512.745 216.158C512.044 216.651 511.106 216.641 510.415 216.135L505.25 212.354C504.136 211.538 504.164 209.865 505.306 209.087L525.09 195.618C525.77 195.155 526.663 195.156 527.343 195.619Z" stroke="#333333" stroke-width="0.3"/>
<path d="M463.1 238.959L468.149 242.402C469.303 243.19 469.315 244.889 468.171 245.692L448.503 259.498C447.801 259.991 446.864 259.981 446.172 259.475L441.008 255.694C439.893 254.878 439.922 253.204 441.064 252.427L460.848 238.958C461.528 238.495 462.421 238.496 463.1 238.959Z" stroke="#333333" stroke-width="0.3"/>
<path d="M429.909 238.978L440.179 246.125C441.33 246.926 441.321 248.632 440.161 249.421L429.784 256.474C429.098 256.94 428.195 256.934 427.515 256.459L417.279 249.312C416.131 248.511 416.14 246.809 417.297 246.02L427.64 238.967C428.326 238.5 429.229 238.504 429.909 238.978Z" fill="url(#paint1_radial_56_28)" fill-opacity="0.5" stroke="#333333" stroke-width="0.3"/>
<path d="M475.093 246.355L485.363 253.502C486.514 254.303 486.505 256.01 485.345 256.798L474.968 263.851C474.282 264.317 473.379 264.312 472.699 263.837L462.462 256.689C461.315 255.888 461.324 254.186 462.481 253.397L472.824 246.344C473.51 245.877 474.412 245.881 475.093 246.355Z" fill="url(#paint2_radial_56_28)" fill-opacity="0.5" stroke="#333333" stroke-width="0.3"/>
<path d="M456.035 221.149L466.325 228.31C467.471 229.108 467.468 230.804 466.319 231.597L447.202 244.806C446.535 245.267 445.656 245.279 444.976 244.838L434.177 237.83C432.978 237.052 432.959 235.304 434.14 234.499L453.767 221.137C454.452 220.671 455.354 220.675 456.035 221.149Z" stroke="#333333" stroke-width="0.3"/>
<path d="M501.22 228.526L511.51 235.688C512.656 236.485 512.653 238.181 511.505 238.975L492.387 252.183C491.72 252.644 490.842 252.657 490.162 252.216L479.362 245.208C478.163 244.43 478.144 242.681 479.326 241.877L498.952 228.515C499.637 228.048 500.54 228.053 501.22 228.526Z" stroke="#333333" stroke-width="0.3"/>
<path d="M484.93 201.785L495.2 208.932C496.351 209.733 496.341 211.44 495.181 212.228L484.805 219.281C484.119 219.747 483.216 219.742 482.536 219.267L472.299 212.119C471.151 211.318 471.161 209.616 472.317 208.827L482.661 201.774C483.346 201.307 484.249 201.311 484.93 201.785Z" fill="url(#paint3_radial_56_28)" fill-opacity="0.5" stroke="#333333" stroke-width="0.3"/>
<path d="M537.972 202.744L548.153 210.024C549.276 210.828 549.267 212.5 548.135 213.291L537.849 220.474C537.154 220.96 536.227 220.954 535.538 220.46L525.39 213.179C524.27 212.376 524.28 210.707 525.408 209.916L535.661 202.733C536.356 202.246 537.282 202.25 537.972 202.744Z" fill="url(#paint4_radial_56_28)" fill-opacity="0.5" stroke="#333333" stroke-width="0.3"/>
<path d="M520.145 215.346L530.325 222.627C531.448 223.43 531.439 225.103 530.307 225.893L520.021 233.077C519.326 233.563 518.4 233.557 517.71 233.062L507.563 225.782C506.443 224.979 506.452 223.31 507.581 222.519L517.834 215.335C518.528 214.849 519.455 214.853 520.145 215.346Z" fill="url(#paint5_radial_56_28)" fill-opacity="0.5" stroke="#333333" stroke-width="0.3"/>
<path d="M502.889 212.535L508.087 216.128C509.245 216.928 509.236 218.643 508.069 219.431L502.813 222.979C502.129 223.44 501.232 223.435 500.554 222.965L495.373 219.372C494.218 218.571 494.228 216.86 495.391 216.072L500.631 212.524C501.314 212.062 502.211 212.066 502.889 212.535Z" fill="url(#paint6_radial_56_28)" fill-opacity="0.5" stroke="#333333" stroke-width="0.3"/>
<path d="M473.074 231.285L478.272 234.878C479.43 235.678 479.421 237.393 478.254 238.18L472.998 241.729C472.314 242.19 471.417 242.185 470.739 241.714L465.558 238.122C464.403 237.321 464.413 235.61 465.576 234.822L470.815 231.274C471.498 230.811 472.395 230.816 473.074 231.285Z" fill="url(#paint7_radial_56_28)" fill-opacity="0.5" stroke="#333333" stroke-width="0.3"/>
<path d="M511.055 183.957L521.345 191.118C522.491 191.916 522.488 193.612 521.34 194.405L502.222 207.614C501.556 208.075 500.677 208.087 499.997 207.646L489.198 200.638C487.998 199.86 487.979 198.112 489.161 197.307L508.787 183.945C509.473 183.479 510.375 183.483 511.055 183.957Z" stroke="#333333" stroke-width="0.3"/>
<path d="M295.874 123.031L329.354 146.434C333.936 149.638 333.903 156.434 329.29 159.592L241.034 220.02C238.29 221.898 234.67 221.884 231.941 219.982L198.341 196.571C193.748 193.37 193.778 186.563 198.4 183.403L286.776 122.984C289.523 121.106 293.147 121.125 295.874 123.031Z" stroke="#A8A8A8"/>
<path d="M295.883 118.427L329.361 141.829C333.942 145.031 333.911 151.823 329.303 154.984L241.64 215.103C238.9 216.982 235.285 216.972 232.556 215.079L198.975 191.789C194.373 188.598 194.39 181.788 199.007 178.619L286.773 118.388C289.521 116.502 293.151 116.517 295.883 118.427Z" fill="black"/>
<path d="M295.883 118.427L329.361 141.829C333.942 145.031 333.911 151.823 329.303 154.984L241.64 215.103C238.9 216.982 235.285 216.972 232.556 215.079L198.975 191.789C194.373 188.598 194.39 181.788 199.007 178.619L286.773 118.388C289.521 116.502 293.151 116.517 295.883 118.427Z" fill="url(#paint8_linear_56_28)" fill-opacity="0.2"/>
<path d="M295.883 118.427L329.361 141.829C333.942 145.031 333.911 151.823 329.303 154.984L241.64 215.103C238.9 216.982 235.285 216.972 232.556 215.079L198.975 191.789C194.373 188.598 194.39 181.788 199.007 178.619L286.773 118.388C289.521 116.502 293.151 116.517 295.883 118.427Z" stroke="#A8A8A8"/>
<path d="M308.343 132.619L313.391 136.063C314.545 136.85 314.557 138.549 313.413 139.352L293.745 153.158C293.044 153.651 292.106 153.641 291.415 153.135L286.25 149.354C285.136 148.538 285.164 146.865 286.306 146.087L306.09 132.618C306.77 132.155 307.663 132.156 308.343 132.619Z" stroke="#333333" stroke-width="0.3"/>
<path d="M244.1 175.959L249.149 179.402C250.303 180.19 250.315 181.889 249.171 182.692L229.503 196.498C228.802 196.991 227.864 196.981 227.173 196.475L222.008 192.694C220.894 191.878 220.922 190.204 222.064 189.427L241.848 175.958C242.528 175.495 243.421 175.496 244.1 175.959Z" stroke="#333333" stroke-width="0.3"/>
<path d="M210.909 175.978L221.179 183.125C222.33 183.926 222.321 185.632 221.161 186.421L210.784 193.474C210.098 193.94 209.195 193.934 208.515 193.459L198.278 186.312C197.131 185.511 197.14 183.809 198.297 183.02L208.64 175.967C209.326 175.5 210.228 175.504 210.909 175.978Z" fill="url(#paint9_radial_56_28)" fill-opacity="0.5" stroke="#333333" stroke-width="0.3"/>
<path d="M256.093 183.355L266.363 190.502C267.514 191.303 267.505 193.01 266.345 193.798L255.968 200.851C255.282 201.317 254.379 201.312 253.699 200.837L243.462 193.689C242.315 192.888 242.324 191.186 243.481 190.397L253.824 183.344C254.51 182.877 255.412 182.881 256.093 183.355Z" fill="url(#paint10_radial_56_28)" fill-opacity="0.5" stroke="#333333" stroke-width="0.3"/>
<path d="M237.035 158.149L247.325 165.31C248.471 166.108 248.468 167.804 247.319 168.597L228.202 181.806C227.535 182.267 226.656 182.279 225.976 181.838L215.177 174.83C213.978 174.052 213.959 172.304 215.14 171.499L234.767 158.137C235.452 157.671 236.354 157.675 237.035 158.149Z" stroke="#333333" stroke-width="0.3"/>
<path d="M282.22 165.526L292.51 172.688C293.656 173.485 293.653 175.181 292.505 175.975L273.387 189.183C272.72 189.644 271.842 189.657 271.162 189.216L260.362 182.208C259.163 181.43 259.144 179.681 260.326 178.877L279.952 165.515C280.637 165.048 281.54 165.053 282.22 165.526Z" stroke="#333333" stroke-width="0.3"/>
<path d="M265.93 138.785L276.2 145.932C277.351 146.733 277.341 148.44 276.181 149.228L265.805 156.281C265.119 156.747 264.216 156.742 263.536 156.267L253.299 149.119C252.151 148.318 252.161 146.616 253.317 145.827L263.661 138.774C264.346 138.307 265.249 138.311 265.93 138.785Z" fill="url(#paint11_radial_56_28)" fill-opacity="0.5" stroke="#333333" stroke-width="0.3"/>
<path d="M318.972 139.744L329.153 147.024C330.276 147.828 330.267 149.5 329.135 150.291L318.849 157.474C318.154 157.96 317.227 157.954 316.538 157.46L306.39 150.179C305.27 149.376 305.28 147.707 306.408 146.916L316.661 139.733C317.356 139.246 318.282 139.25 318.972 139.744Z" fill="url(#paint12_radial_56_28)" fill-opacity="0.5" stroke="#333333" stroke-width="0.3"/>
<path d="M301.145 152.346L311.325 159.627C312.448 160.43 312.439 162.103 311.307 162.893L301.021 170.077C300.326 170.563 299.4 170.557 298.71 170.062L288.563 162.782C287.443 161.979 287.452 160.31 288.581 159.519L298.834 152.335C299.528 151.849 300.455 151.853 301.145 152.346Z" fill="url(#paint13_radial_56_28)" fill-opacity="0.5" stroke="#333333" stroke-width="0.3"/>
<path d="M283.889 149.535L289.087 153.128C290.245 153.928 290.236 155.643 289.069 156.431L283.813 159.979C283.129 160.44 282.232 160.435 281.554 159.965L276.373 156.372C275.218 155.571 275.228 153.86 276.391 153.072L281.631 149.524C282.314 149.062 283.211 149.066 283.889 149.535Z" fill="url(#paint14_radial_56_28)" fill-opacity="0.5" stroke="#333333" stroke-width="0.3"/>
<path d="M254.074 168.285L259.272 171.878C260.43 172.678 260.421 174.393 259.254 175.18L253.998 178.729C253.314 179.19 252.417 179.185 251.739 178.714L246.558 175.122C245.403 174.321 245.413 172.61 246.576 171.822L251.815 168.274C252.498 167.811 253.395 167.816 254.074 168.285Z" fill="url(#paint15_radial_56_28)" fill-opacity="0.5" stroke="#333333" stroke-width="0.3"/>
<path d="M292.055 120.957L302.345 128.118C303.491 128.916 303.488 130.612 302.34 131.405L283.222 144.614C282.556 145.075 281.677 145.087 280.997 144.646L270.198 137.638C268.998 136.86 268.979 135.112 270.161 134.307L289.787 120.945C290.473 120.479 291.375 120.483 292.055 120.957Z" stroke="#333333" stroke-width="0.3"/>
<path d="M274.874 242.031L308.354 265.434C312.936 268.638 312.903 275.434 308.29 278.592L220.034 339.02C217.29 340.898 213.67 340.884 210.941 338.982L177.341 315.571C172.748 312.37 172.778 305.563 177.4 302.403L265.776 241.984C268.523 240.106 272.147 240.125 274.874 242.031Z" stroke="#A8A8A8"/>
<path d="M274.883 237.427L308.361 260.829C312.942 264.031 312.911 270.823 308.303 273.984L220.64 334.103C217.9 335.982 214.285 335.972 211.556 334.079L177.975 310.789C173.373 307.598 173.39 300.788 178.007 297.619L265.773 237.388C268.521 235.502 272.151 235.517 274.883 237.427Z" fill="black"/>
<path d="M274.883 237.427L308.361 260.829C312.942 264.031 312.911 270.823 308.303 273.984L220.64 334.103C217.9 335.982 214.285 335.972 211.556 334.079L177.975 310.789C173.373 307.598 173.39 300.788 178.007 297.619L265.773 237.388C268.521 235.502 272.151 235.517 274.883 237.427Z" fill="url(#paint16_linear_56_28)" fill-opacity="0.2"/>
<path d="M274.883 237.427L308.361 260.829C312.942 264.031 312.911 270.823 308.303 273.984L220.64 334.103C217.9 335.982 214.285 335.972 211.556 334.079L177.975 310.789C173.373 307.598 173.39 300.788 178.007 297.619L265.773 237.388C268.521 235.502 272.151 235.517 274.883 237.427Z" stroke="#A8A8A8"/>
<path d="M287.343 251.619L292.391 255.063C293.545 255.85 293.557 257.549 292.413 258.352L272.745 272.158C272.044 272.651 271.106 272.641 270.415 272.135L265.25 268.354C264.136 267.538 264.164 265.865 265.306 265.087L285.09 251.618C285.77 251.155 286.663 251.156 287.343 251.619Z" stroke="#333333" stroke-width="0.3"/>
<path d="M223.1 294.959L228.149 298.402C229.303 299.19 229.315 300.889 228.171 301.692L208.503 315.498C207.802 315.991 206.864 315.981 206.173 315.475L201.008 311.694C199.894 310.878 199.922 309.204 201.064 308.427L220.848 294.958C221.528 294.495 222.421 294.496 223.1 294.959Z" stroke="#333333" stroke-width="0.3"/>
<path d="M189.909 294.978L200.179 302.125C201.33 302.926 201.321 304.632 200.161 305.421L189.784 312.474C189.098 312.94 188.195 312.934 187.515 312.459L177.278 305.312C176.131 304.511 176.14 302.809 177.297 302.02L187.64 294.967C188.326 294.5 189.228 294.504 189.909 294.978Z" fill="url(#paint17_radial_56_28)" fill-opacity="0.5" stroke="#333333" stroke-width="0.3"/>
<path d="M235.093 302.355L245.363 309.502C246.514 310.303 246.505 312.01 245.345 312.798L234.968 319.851C234.282 320.317 233.379 320.312 232.699 319.837L222.462 312.689C221.315 311.888 221.324 310.186 222.481 309.397L232.824 302.344C233.51 301.877 234.412 301.881 235.093 302.355Z" fill="url(#paint18_radial_56_28)" fill-opacity="0.5" stroke="#333333" stroke-width="0.3"/>
<path d="M216.035 277.149L226.325 284.31C227.471 285.108 227.468 286.804 226.319 287.597L207.202 300.806C206.535 301.267 205.656 301.279 204.976 300.838L194.177 293.83C192.978 293.052 192.959 291.304 194.14 290.499L213.767 277.137C214.452 276.671 215.354 276.675 216.035 277.149Z" stroke="#333333" stroke-width="0.3"/>
<path d="M261.22 284.526L271.51 291.688C272.656 292.485 272.653 294.181 271.505 294.975L252.387 308.183C251.72 308.644 250.842 308.657 250.162 308.216L239.362 301.208C238.163 300.43 238.144 298.681 239.326 297.877L258.952 284.515C259.637 284.048 260.54 284.053 261.22 284.526Z" stroke="#333333" stroke-width="0.3"/>
<path d="M244.93 257.785L255.2 264.932C256.351 265.733 256.341 267.44 255.181 268.228L244.805 275.281C244.118 275.747 243.216 275.742 242.535 275.267L232.299 268.119C231.151 267.318 231.161 265.616 232.317 264.827L242.661 257.774C243.346 257.307 244.249 257.311 244.93 257.785Z" fill="url(#paint19_radial_56_28)" fill-opacity="0.5" stroke="#333333" stroke-width="0.3"/>
<path d="M297.972 258.744L308.153 266.024C309.276 266.828 309.267 268.5 308.135 269.291L297.849 276.474C297.154 276.96 296.227 276.954 295.538 276.46L285.39 269.179C284.27 268.376 284.28 266.707 285.408 265.916L295.661 258.733C296.356 258.246 297.282 258.25 297.972 258.744Z" fill="url(#paint20_radial_56_28)" fill-opacity="0.5" stroke="#333333" stroke-width="0.3"/>
<path d="M280.145 271.346L290.325 278.627C291.448 279.43 291.439 281.103 290.307 281.893L280.021 289.077C279.326 289.563 278.4 289.557 277.71 289.062L267.563 281.782C266.443 280.979 266.452 279.31 267.581 278.519L277.834 271.335C278.528 270.849 279.455 270.853 280.145 271.346Z" fill="url(#paint21_radial_56_28)" fill-opacity="0.5" stroke="#333333" stroke-width="0.3"/>
<path d="M262.889 268.535L268.087 272.128C269.245 272.928 269.236 274.643 268.069 275.431L262.813 278.979C262.129 279.44 261.232 279.435 260.554 278.965L255.373 275.372C254.218 274.571 254.228 272.86 255.391 272.072L260.631 268.524C261.314 268.062 262.211 268.066 262.889 268.535Z" fill="url(#paint22_radial_56_28)" fill-opacity="0.5" stroke="#333333" stroke-width="0.3"/>
<path d="M233.074 287.285L238.272 290.878C239.43 291.678 239.421 293.393 238.254 294.18L232.998 297.729C232.314 298.19 231.417 298.185 230.739 297.714L225.558 294.122C224.403 293.321 224.413 291.61 225.576 290.822L230.815 287.274C231.498 286.811 232.395 286.816 233.074 287.285Z" fill="url(#paint23_radial_56_28)" fill-opacity="0.5" stroke="#333333" stroke-width="0.3"/>
<path d="M271.055 239.957L281.345 247.118C282.491 247.916 282.488 249.612 281.34 250.405L262.222 263.614C261.556 264.075 260.677 264.087 259.997 263.646L249.198 256.638C247.998 255.86 247.979 254.112 249.161 253.307L268.787 239.945C269.473 239.479 270.375 239.483 271.055 239.957Z" stroke="#333333" stroke-width="0.3"/>
<path d="M432.635 131.214L397.323 155.898C392.736 159.104 392.774 165.907 397.395 169.062L433.079 193.423C435.83 195.301 439.456 195.278 442.183 193.366L477.381 168.682C481.954 165.475 481.916 158.688 477.308 155.531L441.739 131.171C438.991 129.289 435.364 129.306 432.635 131.214Z" stroke="#A8A8A8"/>
<path d="M432.635 126.424L397.323 151.108C392.736 154.314 392.774 161.117 397.395 164.272L433.079 188.633C435.83 190.511 439.456 190.488 442.183 188.576L477.381 163.891C481.954 160.684 481.916 153.897 477.308 150.741L441.739 126.38C438.991 124.498 435.364 124.516 432.635 126.424Z" fill="black"/>
<path d="M432.635 126.424L397.323 151.108C392.736 154.314 392.774 161.117 397.395 164.272L433.079 188.633C435.83 190.511 439.456 190.488 442.183 188.576L477.381 163.891C481.954 160.684 481.916 153.897 477.308 150.741L441.739 126.38C438.991 124.498 435.364 124.516 432.635 126.424Z" fill="url(#paint24_linear_56_28)" fill-opacity="0.2"/>
<path d="M432.635 126.424L397.323 151.108C392.736 154.314 392.774 161.117 397.395 164.272L433.079 188.633C435.83 190.511 439.456 190.488 442.183 188.576L477.381 163.891C481.954 160.684 481.916 153.897 477.308 150.741L441.739 126.38C438.991 124.498 435.364 124.516 432.635 126.424Z" stroke="#A8A8A8"/>
<path d="M462.34 148.31L451.533 155.831C450.382 156.632 450.392 158.339 451.552 159.127L462.471 166.549C463.157 167.015 464.06 167.009 464.74 166.534L475.512 159.013C476.66 158.212 476.65 156.51 475.494 155.721L464.61 148.299C463.924 147.832 463.021 147.836 462.34 148.31Z" fill="url(#paint25_radial_56_28)" fill-opacity="0.5" stroke="#333333" stroke-width="0.3"/>
<path d="M408.689 148.31L397.882 155.831C396.731 156.632 396.74 158.339 397.9 159.127L408.819 166.549C409.505 167.015 410.408 167.009 411.089 166.534L421.861 159.013C423.008 158.212 422.999 156.51 421.842 155.721L410.958 148.299C410.273 147.832 409.37 147.836 408.689 148.31Z" fill="url(#paint26_radial_56_28)" fill-opacity="0.5" stroke="#333333" stroke-width="0.3"/>
<path d="M435.196 129.787L424.369 137.323C423.223 138.12 423.226 139.816 424.375 140.61L444.372 154.427C445.039 154.887 445.918 154.9 446.598 154.459L457.96 147.086C459.159 146.307 459.179 144.559 457.997 143.755L437.464 129.776C436.779 129.309 435.877 129.314 435.196 129.787Z" stroke="#333333" stroke-width="0.3"/>
<path d="M426.254 160.445L415.427 167.98C414.281 168.778 414.284 170.474 415.432 171.267L435.43 185.084C436.097 185.545 436.976 185.558 437.656 185.117L449.018 177.743C450.217 176.965 450.236 175.217 449.055 174.412L428.522 160.433C427.837 159.967 426.935 159.972 426.254 160.445Z" stroke="#333333" stroke-width="0.3"/>
<path d="M419.552 141.266L414.17 144.937C413.015 145.724 413.004 147.423 414.148 148.226L434.72 162.667C435.421 163.16 436.359 163.15 437.05 162.644L442.55 158.617C443.665 157.801 443.636 156.128 442.494 155.35L421.804 141.265C421.125 140.802 420.231 140.802 419.552 141.266Z" stroke="#333333" stroke-width="0.3"/>
<path d="M370.635 90.2141L335.323 114.898C330.736 118.104 330.774 124.907 335.395 128.062L371.079 152.423C373.83 154.301 377.456 154.278 380.183 152.366L415.381 127.682C419.954 124.475 419.916 117.688 415.308 114.531L379.739 90.1706C376.991 88.2887 373.364 88.306 370.635 90.2141Z" stroke="#A8A8A8"/>
<path d="M370.635 85.4239L335.323 110.108C330.736 113.314 330.774 120.117 335.395 123.272L371.079 147.633C373.83 149.511 377.456 149.488 380.183 147.576L415.381 122.891C419.954 119.684 419.916 112.897 415.308 109.741L379.739 85.3803C376.991 83.4984 373.364 83.5157 370.635 85.4239Z" fill="black"/>
<path d="M370.635 85.4239L335.323 110.108C330.736 113.314 330.774 120.117 335.395 123.272L371.079 147.633C373.83 149.511 377.456 149.488 380.183 147.576L415.381 122.891C419.954 119.684 419.916 112.897 415.308 109.741L379.739 85.3803C376.991 83.4984 373.364 83.5157 370.635 85.4239Z" fill="url(#paint27_linear_56_28)" fill-opacity="0.2"/>
<path d="M370.635 85.4239L335.323 110.108C330.736 113.314 330.774 120.117 335.395 123.272L371.079 147.633C373.83 149.511 377.456 149.488 380.183 147.576L415.381 122.891C419.954 119.684 419.916 112.897 415.308 109.741L379.739 85.3803C376.991 83.4984 373.364 83.5157 370.635 85.4239Z" stroke="#A8A8A8"/>
<path d="M400.34 107.31L389.533 114.831C388.382 115.632 388.392 117.339 389.552 118.127L400.471 125.549C401.157 126.015 402.06 126.009 402.74 125.534L413.512 118.013C414.66 117.212 414.65 115.51 413.494 114.721L402.61 107.299C401.924 106.832 401.021 106.836 400.34 107.31Z" fill="url(#paint28_radial_56_28)" fill-opacity="0.5" stroke="#333333" stroke-width="0.3"/>
<path d="M346.689 107.31L335.882 114.831C334.731 115.632 334.74 117.339 335.9 118.127L346.819 125.549C347.505 126.015 348.408 126.009 349.089 125.534L359.861 118.013C361.008 117.212 360.999 115.51 359.842 114.721L348.958 107.299C348.273 106.832 347.37 106.836 346.689 107.31Z" fill="url(#paint29_radial_56_28)" fill-opacity="0.5" stroke="#333333" stroke-width="0.3"/>
<path d="M373.196 88.7874L362.369 96.3227C361.223 97.1201 361.226 98.8162 362.375 99.6097L382.372 113.427C383.039 113.887 383.918 113.9 384.598 113.459L395.96 106.086C397.159 105.307 397.179 103.559 395.997 102.755L375.464 88.7757C374.779 88.3092 373.877 88.3138 373.196 88.7874Z" stroke="#333333" stroke-width="0.3"/>
<path d="M364.254 119.445L353.427 126.98C352.281 127.778 352.284 129.474 353.432 130.267L373.43 144.084C374.097 144.545 374.976 144.558 375.656 144.117L387.018 136.743C388.217 135.965 388.236 134.217 387.055 133.412L366.522 119.433C365.837 118.967 364.935 118.972 364.254 119.445Z" stroke="#333333" stroke-width="0.3"/>
<path d="M357.552 100.266L352.17 103.937C351.015 104.724 351.004 106.423 352.148 107.226L372.72 121.667C373.421 122.16 374.359 122.15 375.05 121.644L380.55 117.617C381.665 116.801 381.636 115.128 380.494 114.35L359.804 100.265C359.125 99.8018 358.231 99.8022 357.552 100.266Z" stroke="#333333" stroke-width="0.3"/>
<path d="M319.635 198.214L284.323 222.898C279.736 226.104 279.774 232.907 284.395 236.062L320.079 260.423C322.83 262.301 326.456 262.278 329.183 260.366L364.381 235.682C368.954 232.475 368.916 225.688 364.308 222.531L328.739 198.171C325.991 196.289 322.364 196.306 319.635 198.214Z" stroke="#A8A8A8"/>
<path d="M319.635 193.424L284.323 218.108C279.736 221.314 279.774 228.117 284.395 231.272L320.079 255.633C322.83 257.511 326.456 257.488 329.183 255.576L364.381 230.891C368.954 227.684 368.916 220.897 364.308 217.741L328.739 193.38C325.991 191.498 322.364 191.516 319.635 193.424Z" fill="black"/>
<path d="M319.635 193.424L284.323 218.108C279.736 221.314 279.774 228.117 284.395 231.272L320.079 255.633C322.83 257.511 326.456 257.488 329.183 255.576L364.381 230.891C368.954 227.684 368.916 220.897 364.308 217.741L328.739 193.38C325.991 191.498 322.364 191.516 319.635 193.424Z" fill="url(#paint30_linear_56_28)" fill-opacity="0.2"/>
<path d="M319.635 193.424L284.323 218.108C279.736 221.314 279.774 228.117 284.395 231.272L320.079 255.633C322.83 257.511 326.456 257.488 329.183 255.576L364.381 230.891C368.954 227.684 368.916 220.897 364.308 217.741L328.739 193.38C325.991 191.498 322.364 191.516 319.635 193.424Z" stroke="#A8A8A8"/>
<path d="M349.34 215.31L338.533 222.831C337.382 223.632 337.392 225.339 338.552 226.127L349.471 233.549C350.157 234.015 351.06 234.009 351.74 233.534L362.512 226.013C363.66 225.212 363.65 223.51 362.494 222.721L351.61 215.299C350.924 214.832 350.021 214.836 349.34 215.31Z" fill="url(#paint31_radial_56_28)" fill-opacity="0.5" stroke="#333333" stroke-width="0.3"/>
<path d="M295.689 215.31L284.882 222.831C283.731 223.632 283.74 225.339 284.9 226.127L295.819 233.549C296.505 234.015 297.408 234.009 298.089 233.534L308.861 226.013C310.008 225.212 309.999 223.51 308.842 222.721L297.958 215.299C297.273 214.832 296.37 214.836 295.689 215.31Z" fill="url(#paint32_radial_56_28)" fill-opacity="0.5" stroke="#333333" stroke-width="0.3"/>
<path d="M322.196 196.787L311.369 204.323C310.223 205.12 310.226 206.816 311.375 207.61L331.372 221.427C332.039 221.887 332.918 221.9 333.598 221.459L344.96 214.086C346.159 213.307 346.179 211.559 344.997 210.755L324.464 196.776C323.779 196.309 322.877 196.314 322.196 196.787Z" stroke="#333333" stroke-width="0.3"/>
<path d="M313.254 227.445L302.427 234.98C301.281 235.778 301.284 237.474 302.432 238.267L322.43 252.084C323.097 252.545 323.976 252.558 324.656 252.117L336.018 244.743C337.217 243.965 337.236 242.217 336.055 241.412L315.522 227.433C314.837 226.967 313.935 226.972 313.254 227.445Z" stroke="#333333" stroke-width="0.3"/>
<path d="M306.552 208.266L301.17 211.937C300.015 212.724 300.004 214.423 301.148 215.226L321.72 229.667C322.421 230.16 323.359 230.15 324.05 229.644L329.55 225.617C330.665 224.801 330.636 223.128 329.494 222.35L308.804 208.265C308.125 207.802 307.231 207.802 306.552 208.266Z" stroke="#333333" stroke-width="0.3"/>
<path d="M297.635 330.214L262.323 354.898C257.736 358.104 257.774 364.907 262.395 368.062L298.079 392.423C300.83 394.301 304.456 394.278 307.183 392.366L342.381 367.682C346.954 364.475 346.916 357.688 342.308 354.531L306.739 330.171C303.991 328.289 300.364 328.306 297.635 330.214Z" stroke="#A8A8A8"/>
<path d="M297.635 325.424L262.323 350.108C257.736 353.314 257.774 360.117 262.395 363.272L298.079 387.633C300.83 389.511 304.456 389.488 307.183 387.576L342.381 362.891C346.954 359.684 346.916 352.897 342.308 349.741L306.739 325.38C303.991 323.498 300.364 323.516 297.635 325.424Z" fill="black"/>
<path d="M297.635 325.424L262.323 350.108C257.736 353.314 257.774 360.117 262.395 363.272L298.079 387.633C300.83 389.511 304.456 389.488 307.183 387.576L342.381 362.891C346.954 359.684 346.916 352.897 342.308 349.741L306.739 325.38C303.991 323.498 300.364 323.516 297.635 325.424Z" fill="url(#paint33_linear_56_28)" fill-opacity="0.2"/>
<path d="M297.635 325.424L262.323 350.108C257.736 353.314 257.774 360.117 262.395 363.272L298.079 387.633C300.83 389.511 304.456 389.488 307.183 387.576L342.381 362.891C346.954 359.684 346.916 352.897 342.308 349.741L306.739 325.38C303.991 323.498 300.364 323.516 297.635 325.424Z" stroke="#A8A8A8"/>
<path d="M327.34 347.31L316.533 354.831C315.382 355.632 315.392 357.339 316.552 358.127L327.471 365.549C328.157 366.015 329.06 366.009 329.74 365.534L340.512 358.013C341.66 357.212 341.65 355.51 340.494 354.721L329.61 347.299C328.924 346.832 328.021 346.836 327.34 347.31Z" fill="url(#paint34_radial_56_28)" fill-opacity="0.5" stroke="#333333" stroke-width="0.3"/>
<path d="M273.689 347.31L262.882 354.831C261.731 355.632 261.74 357.339 262.9 358.127L273.819 365.549C274.505 366.015 275.408 366.009 276.089 365.534L286.861 358.013C288.008 357.212 287.999 355.51 286.842 354.721L275.958 347.299C275.273 346.832 274.37 346.836 273.689 347.31Z" fill="url(#paint35_radial_56_28)" fill-opacity="0.5" stroke="#333333" stroke-width="0.3"/>
<path d="M300.196 328.787L289.369 336.323C288.223 337.12 288.226 338.816 289.375 339.61L309.372 353.427C310.039 353.887 310.918 353.9 311.598 353.459L322.96 346.086C324.159 345.307 324.179 343.559 322.997 342.755L302.464 328.776C301.779 328.309 300.877 328.314 300.196 328.787Z" stroke="#333333" stroke-width="0.3"/>
<path d="M291.254 359.445L280.427 366.98C279.281 367.778 279.284 369.474 280.432 370.267L300.43 384.084C301.097 384.545 301.976 384.558 302.656 384.117L314.018 376.743C315.217 375.965 315.236 374.217 314.055 373.412L293.522 359.433C292.837 358.967 291.935 358.972 291.254 359.445Z" stroke="#333333" stroke-width="0.3"/>
<path d="M284.552 340.266L279.17 343.937C278.015 344.724 278.004 346.423 279.148 347.226L299.72 361.667C300.421 362.16 301.359 362.15 302.05 361.644L307.55 357.617C308.665 356.801 308.636 355.128 307.494 354.35L286.804 340.265C286.125 339.802 285.231 339.802 284.552 340.266Z" stroke="#333333" stroke-width="0.3"/>
<path d="M354.635 285.214L319.323 309.898C314.736 313.104 314.774 319.907 319.395 323.062L355.079 347.423C357.83 349.301 361.456 349.278 364.183 347.366L399.381 322.682C403.954 319.475 403.916 312.688 399.308 309.531L363.739 285.171C360.991 283.289 357.364 283.306 354.635 285.214Z" stroke="#A8A8A8"/>
<path d="M354.635 280.424L319.323 305.108C314.736 308.314 314.774 315.117 319.395 318.272L355.079 342.633C357.83 344.511 361.456 344.488 364.183 342.576L399.381 317.891C403.954 314.684 403.916 307.897 399.308 304.741L363.739 280.38C360.991 278.498 357.364 278.516 354.635 280.424Z" fill="black"/>
<path d="M354.635 280.424L319.323 305.108C314.736 308.314 314.774 315.117 319.395 318.272L355.079 342.633C357.83 344.511 361.456 344.488 364.183 342.576L399.381 317.891C403.954 314.684 403.916 307.897 399.308 304.741L363.739 280.38C360.991 278.498 357.364 278.516 354.635 280.424Z" fill="url(#paint36_linear_56_28)" fill-opacity="0.2"/>
<path d="M354.635 280.424L319.323 305.108C314.736 308.314 314.774 315.117 319.395 318.272L355.079 342.633C357.83 344.511 361.456 344.488 364.183 342.576L399.381 317.891C403.954 314.684 403.916 307.897 399.308 304.741L363.739 280.38C360.991 278.498 357.364 278.516 354.635 280.424Z" stroke="#A8A8A8"/>
<path d="M384.34 302.31L373.533 309.831C372.382 310.632 372.392 312.339 373.552 313.127L384.471 320.549C385.157 321.015 386.06 321.009 386.74 320.534L397.512 313.013C398.66 312.212 398.65 310.51 397.494 309.721L386.61 302.299C385.924 301.832 385.021 301.836 384.34 302.31Z" fill="url(#paint37_radial_56_28)" fill-opacity="0.5" stroke="#333333" stroke-width="0.3"/>
<path d="M330.689 302.31L319.882 309.831C318.731 310.632 318.74 312.339 319.9 313.127L330.819 320.549C331.505 321.015 332.408 321.009 333.089 320.534L343.861 313.013C345.008 312.212 344.999 310.51 343.842 309.721L332.958 302.299C332.273 301.832 331.37 301.836 330.689 302.31Z" fill="url(#paint38_radial_56_28)" fill-opacity="0.5" stroke="#333333" stroke-width="0.3"/>
<path d="M357.196 283.787L346.369 291.323C345.223 292.12 345.226 293.816 346.375 294.61L366.372 308.427C367.039 308.887 367.918 308.9 368.598 308.459L379.96 301.086C381.159 300.307 381.179 298.559 379.997 297.755L359.464 283.776C358.779 283.309 357.877 283.314 357.196 283.787Z" stroke="#333333" stroke-width="0.3"/>
<path d="M348.254 314.445L337.427 321.98C336.281 322.778 336.284 324.474 337.432 325.267L357.43 339.084C358.097 339.545 358.976 339.558 359.656 339.117L371.018 331.743C372.217 330.965 372.236 329.217 371.055 328.412L350.522 314.433C349.837 313.967 348.935 313.972 348.254 314.445Z" stroke="#333333" stroke-width="0.3"/>
<path d="M341.552 295.266L336.17 298.937C335.015 299.724 335.004 301.423 336.148 302.226L356.72 316.667C357.421 317.16 358.359 317.15 359.05 316.644L364.55 312.617C365.665 311.801 365.636 310.128 364.494 309.35L343.804 295.265C343.125 294.802 342.231 294.802 341.552 295.266Z" stroke="#333333" stroke-width="0.3"/>
<path d="M570.991 199.106C582.226 206.805 582.308 223.359 571.148 231.168L314.658 410.668C308.003 415.326 299.156 415.37 292.454 410.778L49.7039 244.431C38.4684 236.732 38.3865 220.179 49.5456 212.369L306.036 32.87C312.692 28.2121 321.538 28.168 328.24 32.76L570.991 199.106Z" stroke="white"/>
<path d="M568.666 203.88C576.445 209.21 576.501 220.67 568.775 226.077L312.02 405.762C307.412 408.986 301.287 409.017 296.648 405.838L53.0869 238.936C45.3086 233.605 45.2522 222.146 52.9777 216.74L309.733 37.0549C314.34 33.8303 320.464 33.7999 325.104 36.9788L568.666 203.88Z" stroke="white"/>
</g>
<defs>
<linearGradient id="paint0_linear_56_28" x1="483.139" y1="178.252" x2="483.139" y2="281.224" gradientUnits="userSpaceOnUse">
<stop stop-color="#5D5D5D" stop-opacity="0"/>
<stop offset="1" stop-color="#5D5D5D"/>
</linearGradient>
<radialGradient id="paint1_radial_56_28" cx="0" cy="0" r="1" gradientUnits="userSpaceOnUse" gradientTransform="translate(428.734 247.72) rotate(90) scale(9.52867 13.832)">
<stop offset="0.41" stop-color="#5D5D5D" stop-opacity="0.17"/>
<stop offset="1" stop-color="#5D5D5D" stop-opacity="0.84"/>
</radialGradient>
<radialGradient id="paint2_radial_56_28" cx="0" cy="0" r="1" gradientUnits="userSpaceOnUse" gradientTransform="translate(473.918 255.097) rotate(90) scale(9.52867 13.832)">
<stop offset="0.41" stop-color="#5D5D5D" stop-opacity="0.17"/>
<stop offset="1" stop-color="#5D5D5D" stop-opacity="0.84"/>
</radialGradient>
<radialGradient id="paint3_radial_56_28" cx="0" cy="0" r="1" gradientUnits="userSpaceOnUse" gradientTransform="translate(483.754 210.527) rotate(90) scale(9.52867 13.832)">
<stop offset="0.41" stop-color="#5D5D5D" stop-opacity="0.17"/>
<stop offset="1" stop-color="#5D5D5D" stop-opacity="0.84"/>
</radialGradient>
<radialGradient id="paint4_radial_56_28" cx="0" cy="0" r="1" gradientUnits="userSpaceOnUse" gradientTransform="translate(536.777 211.603) rotate(90) scale(9.68236 13.6783)">
<stop offset="0.41" stop-color="#5D5D5D" stop-opacity="0.17"/>
<stop offset="1" stop-color="#5D5D5D" stop-opacity="0.84"/>
</radialGradient>
<radialGradient id="paint5_radial_56_28" cx="0" cy="0" r="1" gradientUnits="userSpaceOnUse" gradientTransform="translate(518.949 224.205) rotate(90) scale(9.68236 13.6783)">
<stop offset="0.41" stop-color="#5D5D5D" stop-opacity="0.17"/>
<stop offset="1" stop-color="#5D5D5D" stop-opacity="0.84"/>
</radialGradient>
<radialGradient id="paint6_radial_56_28" cx="0" cy="0" r="1" gradientUnits="userSpaceOnUse" gradientTransform="translate(501.735 217.751) rotate(90) scale(5.99384 8.76024)">
<stop offset="0.41" stop-color="#5D5D5D" stop-opacity="0.17"/>
<stop offset="1" stop-color="#5D5D5D" stop-opacity="0.84"/>
</radialGradient>
<radialGradient id="paint7_radial_56_28" cx="0" cy="0" r="1" gradientUnits="userSpaceOnUse" gradientTransform="translate(471.92 236.5) rotate(90) scale(5.99384 8.76024)">
<stop offset="0.41" stop-color="#5D5D5D" stop-opacity="0.17"/>
<stop offset="1" stop-color="#5D5D5D" stop-opacity="0.84"/>
</radialGradient>
<linearGradient id="paint8_linear_56_28" x1="264.139" y1="115.252" x2="264.139" y2="218.224" gradientUnits="userSpaceOnUse">
<stop stop-color="#5D5D5D" stop-opacity="0"/>
<stop offset="1" stop-color="#5D5D5D"/>
</linearGradient>
<radialGradient id="paint9_radial_56_28" cx="0" cy="0" r="1" gradientUnits="userSpaceOnUse" gradientTransform="translate(209.734 184.72) rotate(90) scale(9.52867 13.832)">
<stop offset="0.41" stop-color="#5D5D5D" stop-opacity="0.17"/>
<stop offset="1" stop-color="#5D5D5D" stop-opacity="0.84"/>
</radialGradient>
<radialGradient id="paint10_radial_56_28" cx="0" cy="0" r="1" gradientUnits="userSpaceOnUse" gradientTransform="translate(254.918 192.097) rotate(90) scale(9.52867 13.832)">
<stop offset="0.41" stop-color="#5D5D5D" stop-opacity="0.17"/>
<stop offset="1" stop-color="#5D5D5D" stop-opacity="0.84"/>
</radialGradient>
<radialGradient id="paint11_radial_56_28" cx="0" cy="0" r="1" gradientUnits="userSpaceOnUse" gradientTransform="translate(264.754 147.527) rotate(90) scale(9.52867 13.832)">
<stop offset="0.41" stop-color="#5D5D5D" stop-opacity="0.17"/>
<stop offset="1" stop-color="#5D5D5D" stop-opacity="0.84"/>
</radialGradient>
<radialGradient id="paint12_radial_56_28" cx="0" cy="0" r="1" gradientUnits="userSpaceOnUse" gradientTransform="translate(317.777 148.603) rotate(90) scale(9.68236 13.6783)">
<stop offset="0.41" stop-color="#5D5D5D" stop-opacity="0.17"/>
<stop offset="1" stop-color="#5D5D5D" stop-opacity="0.84"/>
</radialGradient>
<radialGradient id="paint13_radial_56_28" cx="0" cy="0" r="1" gradientUnits="userSpaceOnUse" gradientTransform="translate(299.949 161.205) rotate(90) scale(9.68236 13.6783)">
<stop offset="0.41" stop-color="#5D5D5D" stop-opacity="0.17"/>
<stop offset="1" stop-color="#5D5D5D" stop-opacity="0.84"/>
</radialGradient>
<radialGradient id="paint14_radial_56_28" cx="0" cy="0" r="1" gradientUnits="userSpaceOnUse" gradientTransform="translate(282.735 154.751) rotate(90) scale(5.99384 8.76024)">
<stop offset="0.41" stop-color="#5D5D5D" stop-opacity="0.17"/>
<stop offset="1" stop-color="#5D5D5D" stop-opacity="0.84"/>
</radialGradient>
<radialGradient id="paint15_radial_56_28" cx="0" cy="0" r="1" gradientUnits="userSpaceOnUse" gradientTransform="translate(252.92 173.5) rotate(90) scale(5.99384 8.76024)">
<stop offset="0.41" stop-color="#5D5D5D" stop-opacity="0.17"/>
<stop offset="1" stop-color="#5D5D5D" stop-opacity="0.84"/>
</radialGradient>
<linearGradient id="paint16_linear_56_28" x1="243.139" y1="234.252" x2="243.139" y2="337.224" gradientUnits="userSpaceOnUse">
<stop stop-color="#5D5D5D" stop-opacity="0"/>
<stop offset="1" stop-color="#5D5D5D"/>
</linearGradient>
<radialGradient id="paint17_radial_56_28" cx="0" cy="0" r="1" gradientUnits="userSpaceOnUse" gradientTransform="translate(188.734 303.72) rotate(90) scale(9.52867 13.832)">
<stop offset="0.41" stop-color="#5D5D5D" stop-opacity="0.17"/>
<stop offset="1" stop-color="#5D5D5D" stop-opacity="0.84"/>
</radialGradient>
<radialGradient id="paint18_radial_56_28" cx="0" cy="0" r="1" gradientUnits="userSpaceOnUse" gradientTransform="translate(233.918 311.097) rotate(90) scale(9.52867 13.832)">
<stop offset="0.41" stop-color="#5D5D5D" stop-opacity="0.17"/>
<stop offset="1" stop-color="#5D5D5D" stop-opacity="0.84"/>
</radialGradient>
<radialGradient id="paint19_radial_56_28" cx="0" cy="0" r="1" gradientUnits="userSpaceOnUse" gradientTransform="translate(243.754 266.527) rotate(90) scale(9.52867 13.832)">
<stop offset="0.41" stop-color="#5D5D5D" stop-opacity="0.17"/>
<stop offset="1" stop-color="#5D5D5D" stop-opacity="0.84"/>
</radialGradient>
<radialGradient id="paint20_radial_56_28" cx="0" cy="0" r="1" gradientUnits="userSpaceOnUse" gradientTransform="translate(296.777 267.603) rotate(90) scale(9.68236 13.6783)">
<stop offset="0.41" stop-color="#5D5D5D" stop-opacity="0.17"/>
<stop offset="1" stop-color="#5D5D5D" stop-opacity="0.84"/>
</radialGradient>
<radialGradient id="paint21_radial_56_28" cx="0" cy="0" r="1" gradientUnits="userSpaceOnUse" gradientTransform="translate(278.949 280.205) rotate(90) scale(9.68236 13.6783)">
<stop offset="0.41" stop-color="#5D5D5D" stop-opacity="0.17"/>
<stop offset="1" stop-color="#5D5D5D" stop-opacity="0.84"/>
</radialGradient>
<radialGradient id="paint22_radial_56_28" cx="0" cy="0" r="1" gradientUnits="userSpaceOnUse" gradientTransform="translate(261.735 273.751) rotate(90) scale(5.99384 8.76024)">
<stop offset="0.41" stop-color="#5D5D5D" stop-opacity="0.17"/>
<stop offset="1" stop-color="#5D5D5D" stop-opacity="0.84"/>
</radialGradient>
<radialGradient id="paint23_radial_56_28" cx="0" cy="0" r="1" gradientUnits="userSpaceOnUse" gradientTransform="translate(231.92 292.5) rotate(90) scale(5.99384 8.76024)">
<stop offset="0.41" stop-color="#5D5D5D" stop-opacity="0.17"/>
<stop offset="1" stop-color="#5D5D5D" stop-opacity="0.84"/>
</radialGradient>
<linearGradient id="paint24_linear_56_28" x1="437.331" y1="123.252" x2="437.331" y2="191.754" gradientUnits="userSpaceOnUse">
<stop stop-color="#5D5D5D" stop-opacity="0"/>
<stop offset="1" stop-color="#5D5D5D"/>
</linearGradient>
<radialGradient id="paint25_radial_56_28" cx="0" cy="0" r="1" gradientUnits="userSpaceOnUse" gradientTransform="translate(463.518 157.423) rotate(90) scale(9.89999 14.371)">
<stop offset="0.41" stop-color="#5D5D5D" stop-opacity="0.17"/>
<stop offset="1" stop-color="#5D5D5D" stop-opacity="0.84"/>
</radialGradient>
<radialGradient id="paint26_radial_56_28" cx="0" cy="0" r="1" gradientUnits="userSpaceOnUse" gradientTransform="translate(409.866 157.423) rotate(90) scale(9.89999 14.371)">
<stop offset="0.41" stop-color="#5D5D5D" stop-opacity="0.17"/>
<stop offset="1" stop-color="#5D5D5D" stop-opacity="0.84"/>
</radialGradient>
<linearGradient id="paint27_linear_56_28" x1="375.331" y1="82.2524" x2="375.331" y2="150.754" gradientUnits="userSpaceOnUse">
<stop stop-color="#5D5D5D" stop-opacity="0"/>
<stop offset="1" stop-color="#5D5D5D"/>
</linearGradient>
<radialGradient id="paint28_radial_56_28" cx="0" cy="0" r="1" gradientUnits="userSpaceOnUse" gradientTransform="translate(401.518 116.423) rotate(90) scale(9.89999 14.371)">
<stop offset="0.41" stop-color="#5D5D5D" stop-opacity="0.17"/>
<stop offset="1" stop-color="#5D5D5D" stop-opacity="0.84"/>
</radialGradient>
<radialGradient id="paint29_radial_56_28" cx="0" cy="0" r="1" gradientUnits="userSpaceOnUse" gradientTransform="translate(347.866 116.423) rotate(90) scale(9.89999 14.371)">
<stop offset="0.41" stop-color="#5D5D5D" stop-opacity="0.17"/>
<stop offset="1" stop-color="#5D5D5D" stop-opacity="0.84"/>
</radialGradient>
<linearGradient id="paint30_linear_56_28" x1="324.331" y1="190.252" x2="324.331" y2="258.754" gradientUnits="userSpaceOnUse">
<stop stop-color="#5D5D5D" stop-opacity="0"/>
<stop offset="1" stop-color="#5D5D5D"/>
</linearGradient>
<radialGradient id="paint31_radial_56_28" cx="0" cy="0" r="1" gradientUnits="userSpaceOnUse" gradientTransform="translate(350.518 224.423) rotate(90) scale(9.89999 14.371)">
<stop offset="0.41" stop-color="#5D5D5D" stop-opacity="0.17"/>
<stop offset="1" stop-color="#5D5D5D" stop-opacity="0.84"/>
</radialGradient>
<radialGradient id="paint32_radial_56_28" cx="0" cy="0" r="1" gradientUnits="userSpaceOnUse" gradientTransform="translate(296.866 224.423) rotate(90) scale(9.89999 14.371)">
<stop offset="0.41" stop-color="#5D5D5D" stop-opacity="0.17"/>
<stop offset="1" stop-color="#5D5D5D" stop-opacity="0.84"/>
</radialGradient>
<linearGradient id="paint33_linear_56_28" x1="302.331" y1="322.252" x2="302.331" y2="390.754" gradientUnits="userSpaceOnUse">
<stop stop-color="#5D5D5D" stop-opacity="0"/>
<stop offset="1" stop-color="#5D5D5D"/>
</linearGradient>
<radialGradient id="paint34_radial_56_28" cx="0" cy="0" r="1" gradientUnits="userSpaceOnUse" gradientTransform="translate(328.518 356.423) rotate(90) scale(9.89999 14.371)">
<stop offset="0.41" stop-color="#5D5D5D" stop-opacity="0.17"/>
<stop offset="1" stop-color="#5D5D5D" stop-opacity="0.84"/>
</radialGradient>
<radialGradient id="paint35_radial_56_28" cx="0" cy="0" r="1" gradientUnits="userSpaceOnUse" gradientTransform="translate(274.866 356.423) rotate(90) scale(9.89999 14.371)">
<stop offset="0.41" stop-color="#5D5D5D" stop-opacity="0.17"/>
<stop offset="1" stop-color="#5D5D5D" stop-opacity="0.84"/>
</radialGradient>
<linearGradient id="paint36_linear_56_28" x1="359.331" y1="277.252" x2="359.331" y2="345.754" gradientUnits="userSpaceOnUse">
<stop stop-color="#5D5D5D" stop-opacity="0"/>
<stop offset="1" stop-color="#5D5D5D"/>
</linearGradient>
<radialGradient id="paint37_radial_56_28" cx="0" cy="0" r="1" gradientUnits="userSpaceOnUse" gradientTransform="translate(385.518 311.423) rotate(90) scale(9.89999 14.371)">
<stop offset="0.41" stop-color="#5D5D5D" stop-opacity="0.17"/>
<stop offset="1" stop-color="#5D5D5D" stop-opacity="0.84"/>
</radialGradient>
<radialGradient id="paint38_radial_56_28" cx="0" cy="0" r="1" gradientUnits="userSpaceOnUse" gradientTransform="translate(331.866 311.423) rotate(90) scale(9.89999 14.371)">
<stop offset="0.41" stop-color="#5D5D5D" stop-opacity="0.17"/>
<stop offset="1" stop-color="#5D5D5D" stop-opacity="0.84"/>
</radialGradient>
</defs>
</svg>
