<svg width="42" height="42" viewBox="0 0 42 42" fill="none" xmlns="http://www.w3.org/2000/svg">
<path d="M6 4H9.125L14.3333 29M14.3333 29H31M14.3333 29C13.2283 29 12.1685 29.439 11.3871 30.2204C10.6057 31.0018 10.1667 32.0616 10.1667 33.1667C10.1667 34.2717 10.6057 35.3315 11.3871 36.1129C12.1685 36.8943 13.2283 37.3333 14.3333 37.3333C15.4384 37.3333 16.4982 36.8943 17.2796 36.1129C18.061 35.3315 18.5 34.2717 18.5 33.1667C18.5 32.0616 18.061 31.0018 17.2796 30.2204C16.4982 29.439 15.4384 29 14.3333 29ZM31 29C29.8949 29 28.8351 29.439 28.0537 30.2204C27.2723 31.0018 26.8333 32.0616 26.8333 33.1667C26.8333 34.2717 27.2723 35.3315 28.0537 36.1129C28.8351 36.8943 29.8949 37.3333 31 37.3333C32.1051 37.3333 33.1649 36.8943 33.9463 36.1129C34.7277 35.3315 35.1667 34.2717 35.1667 33.1667C35.1667 32.0616 34.7277 31.0018 33.9463 30.2204C33.1649 29.439 32.1051 29 31 29ZM13.2917 22.75H32.5625L35.1667 10.25H10.8167" stroke="white" stroke-width="2.8" stroke-linecap="round" stroke-linejoin="round"/>
</svg>
