<svg width="38" height="38" viewBox="0 0 38 38" fill="none" xmlns="http://www.w3.org/2000/svg">
<path fill-rule="evenodd" clip-rule="evenodd" d="M13.0268 21.1274C13.0632 21.1384 13.1004 21.1469 13.1381 21.153C13.3767 21.7044 13.6139 22.2563 13.8499 22.8088C14.2741 23.8029 14.7016 24.8268 14.7952 25.1213C14.9125 25.4835 15.0356 25.73 15.1705 25.8987C15.2405 25.9847 15.3206 26.0608 15.4151 26.1187C15.4647 26.1482 15.5173 26.1726 15.572 26.1915C15.8418 26.2907 16.0881 26.2494 16.2424 26.1989C16.333 26.1687 16.4192 26.127 16.4988 26.0749L16.503 26.0732L18.8863 24.6159L21.6398 26.6853C21.6802 26.7156 21.7241 26.7412 21.7713 26.7622C22.1019 26.9028 22.4224 26.9524 22.7243 26.9127C23.0245 26.8713 23.2632 26.7481 23.4411 26.6083C23.6453 26.4467 23.8081 26.2405 23.9168 26.0062L23.9244 25.988L23.9269 25.9814L23.9286 25.9781V25.9765L23.9294 25.9756C23.9433 25.9398 23.9545 25.903 23.9632 25.8656L26.4763 13.439C26.4832 13.3991 26.4872 13.3587 26.4881 13.3182C26.4881 12.9543 26.3481 12.6078 26.0201 12.3985C25.7384 12.2191 25.4255 12.2108 25.2273 12.2257C25.0148 12.2422 24.8175 12.2935 24.685 12.3348C24.6111 12.3583 24.5379 12.3842 24.4658 12.4126L24.4565 12.4167L10.361 17.839L10.3593 17.8398C10.3115 17.8567 10.2645 17.8758 10.2185 17.8969C10.1066 17.9461 9.99941 18.0047 9.89798 18.0722C9.70655 18.2004 9.26548 18.5527 9.34054 19.135C9.39957 19.5981 9.72341 19.8835 9.9216 20.0208C10.0295 20.096 10.1324 20.1498 10.2083 20.1853C10.2421 20.2019 10.3146 20.23 10.3458 20.2432L10.3542 20.2457L13.0268 21.1274ZM24.9499 13.5581H24.9482L24.9262 13.5672L10.8138 18.9969L10.7919 19.0051L10.7835 19.0076C10.7576 19.0174 10.7323 19.0284 10.7076 19.0407C10.7312 19.0537 10.7554 19.0655 10.7801 19.0763L13.4299 19.9513C13.4767 19.9683 13.5218 19.9893 13.5648 20.0141L22.3161 14.9897L22.3246 14.9856C22.3587 14.9656 22.3936 14.9469 22.4291 14.9293C22.4898 14.8987 22.5868 14.8541 22.6965 14.821C22.7724 14.7978 22.9975 14.7325 23.2404 14.8094C23.3694 14.8489 23.4845 14.9233 23.5722 15.0242C23.6599 15.125 23.7168 15.2481 23.7363 15.3793C23.7677 15.494 23.7686 15.6148 23.7388 15.7299C23.6798 15.9574 23.5179 16.1344 23.3703 16.27C23.2438 16.3858 21.6027 17.9374 19.9843 19.4691L17.7807 21.5533L17.3885 21.9255L22.3406 25.6489C22.4074 25.6763 22.48 25.6877 22.5523 25.682C22.5886 25.6771 22.6228 25.6622 22.6509 25.639C22.6851 25.6107 22.7144 25.5772 22.7378 25.5398L22.7395 25.5389L25.1767 13.4861C25.1001 13.5046 25.0248 13.5284 24.9515 13.5572L24.9499 13.5581ZM17.8144 23.8087L16.826 23.066L16.5865 24.5589L17.8144 23.8087ZM15.9194 21.5922L16.9019 20.6617L19.1055 18.5759L19.9261 17.8001L14.4275 20.957L14.4571 21.0248C14.8038 21.8283 15.1468 22.6333 15.4859 23.4398L15.7246 21.9511C15.7464 21.8131 15.815 21.6872 15.9194 21.5922Z" fill="#D9D9D9"/>
<circle cx="19.0903" cy="19.3042" r="18.0181" stroke="white"/>
</svg>
