<svg width="38" height="38" viewBox="0 0 38 38" fill="none" xmlns="http://www.w3.org/2000/svg">
<path d="M20.9635 18.6544L17.624 20.5627V16.7461L20.9635 18.6544Z" fill="#D9D9D9" stroke="#D9D9D9" stroke-width="1.5" stroke-linecap="round" stroke-linejoin="round"/>
<path d="M9.5127 19.3299V17.9788C9.5127 15.2165 9.5127 13.8349 10.3762 12.9466C11.2407 12.0574 12.6013 12.0192 15.3216 11.9419C16.6097 11.9056 17.9264 11.8799 19.0542 11.8799C20.182 11.8799 21.4978 11.9056 22.7868 11.9419C25.5071 12.0192 26.8677 12.0574 27.7312 12.9466C28.5947 13.8359 28.5957 15.2175 28.5957 17.9788V19.3289C28.5957 22.0921 28.5957 23.4728 27.7322 24.3621C26.8677 25.2504 25.508 25.2895 22.7868 25.3658C21.4987 25.403 20.182 25.4288 19.0542 25.4288C17.9264 25.4288 16.6106 25.403 15.3216 25.3658C12.6013 25.2895 11.2407 25.2513 10.3762 24.3621C9.51174 23.4728 9.5127 22.0912 9.5127 19.3299Z" stroke="#D9D9D9" stroke-width="1.5"/>
<circle cx="19.0542" cy="19.3042" r="18.0181" stroke="white"/>
</svg>
